<svg xmlns="http://www.w3.org/2000/svg" height="48" viewBox="0 96 960 960" width="48"><path d="m365 535-37.167 84.833L243 657l84.833 37.167L365 779l37.167-84.833L487 657l-84.833-37.167L365 535Zm268-8-26 58-58 26 58 27 26 58 27.375-57.95L717 611l-57-26-27-58ZM130 241l80 166h132l-81-166h90l80 166h132l-81-166h90l80 166h132l-81-166h120q28.725 0 50.862 22.138Q896 285.275 896 314v524q0 28.725-22.138 50.862Q851.725 911 823 911H137q-28.725 0-50.862-22.138Q64 866.725 64 838V314q0-29 18-49.5t48-23.5Zm7 239v358h686V480H137Zm0 0v358-358Z"/></svg>